<?xml version="1.0" encoding="UTF-8"?>
<svg xmlns="http://www.w3.org/2000/svg" width="95" height="8" viewBox="0 0 95 8" fill="none">
  <g opacity="0.9">
    <path d="M69.9473 2C69.6689 2 69.4323 1.90278 69.2374 1.70833C69.0426 1.51389 68.9451 1.27778 68.9451 1C68.9451 0.712964 69.0426 0.476852 69.2374 0.291667C69.4323 0.0972225 69.6689 0 69.9473 0C70.2349 0 70.4715 0.0972225 70.6571 0.291667C70.8519 0.476852 70.9494 0.712964 70.9494 1C70.9494 1.27778 70.8519 1.51389 70.6571 1.70833C70.4715 1.90278 70.2349 2 69.9473 2Z" fill="#F2F2F2"></path>
    <path d="M48.1013 7.6V0.471287H49.2872V1.77822C49.5402 1.35842 49.8762 1.02574 50.2952 0.780198C50.7143 0.526733 51.2124 0.4 51.7895 0.4L52.1097 1.68317C51.9595 1.63564 51.7856 1.61188 51.5879 1.61188C50.9238 1.61188 50.3901 1.82574 49.9869 2.25347C49.5837 2.67327 49.3821 3.27525 49.3821 4.05941V7.6H48.1013Z" fill="#F2F2F2"></path>
    <path d="M25.1106 7.25556C25.5461 7.48519 26.0133 7.6 26.5121 7.6C26.9951 7.6 27.4425 7.4963 27.8542 7.28889C28.2738 7.08148 28.6143 6.78148 28.8756 6.38889V7.46667H30.0633V0.8H28.7806V4.5C28.7806 5.13704 28.5826 5.62593 28.1867 5.96667C27.7988 6.3 27.3554 6.46667 26.8565 6.46667C26.2469 6.46667 25.7718 6.26667 25.4313 5.86667C25.0988 5.45926 24.9325 4.99259 24.9325 4.46667V0.8H23.6498V4.63333C23.6498 5.25556 23.7844 5.78889 24.0536 6.23333C24.3228 6.67778 24.6752 7.01852 25.1106 7.25556Z" fill="#F2F2F2"></path>
    <path d="M3.6076 0.4L0 8H1.46447L2.91703 4.86349C3.05197 4.58201 3.17897 4.30455 3.29803 4.03111C3.41709 3.75767 3.53219 3.42392 3.64331 3.02984C3.76238 3.42392 3.88144 3.75767 4.0005 4.03111C4.1275 4.31259 4.2545 4.59005 4.3815 4.86349L5.84597 8H7.21519L3.6076 0.4Z" fill="#F2F2F2"></path>
    <path d="M87.7848 8L91.3924 0.4L95 8H93.6308L92.1663 4.86349C92.0393 4.59005 91.9123 4.31259 91.7853 4.03111C91.6662 3.75767 91.5472 3.42392 91.4281 3.02984C91.317 3.42392 91.2019 3.75767 91.0828 4.03111C90.9638 4.30455 90.8368 4.58201 90.7018 4.86349L89.2493 8H87.7848Z" fill="#F2F2F2"></path>
  </g>
</svg>
